<svg width="14" height="14" viewBox="0 0 14 14" fill="none" xmlns="http://www.w3.org/2000/svg">
<path d="M7.11403 4.71642L7.43803 5.47424C7.45999 5.54014 7.5204 5.57858 7.58081 5.58407L8.40453 5.66095C8.58025 5.67742 8.64615 5.89159 8.51985 6.00691L7.89931 6.55057C7.84989 6.5945 7.82792 6.6604 7.8444 6.7208L8.02561 7.52805C8.06405 7.69828 7.88284 7.83008 7.72908 7.74221L7.02068 7.31937C6.96576 7.28642 6.89437 7.28642 6.83946 7.31937L6.13106 7.74221C5.98279 7.83008 5.79608 7.69828 5.83452 7.52805L6.01574 6.7208C6.03221 6.6604 6.01025 6.5945 5.96082 6.55057L5.34029 6.00691C5.20849 5.89159 5.27988 5.67742 5.45561 5.66095L6.27933 5.58407C6.34523 5.57858 6.40014 5.54014 6.4276 5.47973L6.7516 4.72191C6.81749 4.55717 7.04264 4.55717 7.11403 4.71642Z" stroke="#F0C932" stroke-width="0.549146" stroke-miterlimit="10" stroke-linecap="round" stroke-linejoin="round"/>
<path d="M10.6655 6.32248C10.6797 4.26014 9.01937 2.57678 6.95703 2.56259C4.89469 2.54839 3.21132 4.20874 3.19713 6.27108C3.18294 8.33342 4.84329 10.0168 6.90563 10.031C8.96797 10.0452 10.6513 8.38482 10.6655 6.32248Z" stroke="#F0C932" stroke-width="0.549146" stroke-miterlimit="10" stroke-linecap="round" stroke-linejoin="round"/>
<path d="M6.42208 9.99371L5.49402 12.3276L4.31885 10.9822L2.5451 11.1469L3.72028 8.20349" stroke="#F0C932" stroke-width="0.549146" stroke-miterlimit="10" stroke-linecap="round" stroke-linejoin="round"/>
<path d="M7.43254 9.99371L8.36609 12.3276L9.53577 10.9822L11.315 11.1469L10.1343 8.20349" stroke="#F0C932" stroke-width="0.549146" stroke-miterlimit="10" stroke-linecap="round" stroke-linejoin="round"/>
</svg>
