<svg width="73" height="14" viewBox="0 0 73 14" fill="none" xmlns="http://www.w3.org/2000/svg">
<path d="M25.5698 6.29022V8.70587H24.7561V5.65956H25.5191L25.5698 6.29022ZM25.4572 7.07573H25.2319C25.2319 6.86363 25.2573 6.66843 25.3079 6.49011C25.3605 6.30993 25.4365 6.15414 25.536 6.02275C25.6373 5.88949 25.7622 5.78625 25.9104 5.71305C26.0587 5.63985 26.2305 5.60325 26.4257 5.60325C26.5608 5.60325 26.6847 5.62389 26.7973 5.66519C26.9099 5.7046 27.0066 5.76748 27.0873 5.85382C27.1699 5.93829 27.2337 6.04903 27.2787 6.18605C27.3238 6.32119 27.3463 6.48354 27.3463 6.67312V8.70587H26.5355V6.76321C26.5355 6.62432 26.5167 6.51733 26.4792 6.44225C26.4416 6.36717 26.3881 6.31462 26.3187 6.28459C26.2511 6.25456 26.1695 6.23954 26.0737 6.23954C25.9686 6.23954 25.8767 6.26112 25.7978 6.30429C25.7209 6.34746 25.6571 6.40753 25.6064 6.48448C25.5557 6.55956 25.5182 6.64778 25.4938 6.74914C25.4694 6.85049 25.4572 6.95936 25.4572 7.07573ZM27.2703 6.98282L26.9803 7.01942C26.9803 6.82046 27.0047 6.63558 27.0535 6.46478C27.1042 6.29397 27.1783 6.14381 27.2759 6.0143C27.3754 5.88479 27.4984 5.78438 27.6448 5.71305C27.7912 5.63985 27.9601 5.60325 28.1515 5.60325C28.2979 5.60325 28.4312 5.62483 28.5513 5.668C28.6715 5.7093 28.7738 5.77593 28.8582 5.8679C28.9446 5.95799 29.0103 6.07624 29.0553 6.22265C29.1022 6.36905 29.1257 6.5483 29.1257 6.7604V8.70587H28.312V6.7604C28.312 6.61962 28.2932 6.51264 28.2557 6.43944C28.22 6.36436 28.1675 6.31274 28.098 6.28459C28.0305 6.25456 27.9498 6.23954 27.8559 6.23954C27.7583 6.23954 27.6729 6.25925 27.5997 6.29866C27.5265 6.3362 27.4655 6.38876 27.4167 6.45633C27.3679 6.5239 27.3313 6.60273 27.3069 6.69283C27.2825 6.78104 27.2703 6.87771 27.2703 6.98282ZM31.3977 8.0189V6.66186C31.3977 6.56425 31.3818 6.48073 31.3499 6.41128C31.318 6.33996 31.2682 6.28459 31.2007 6.24517C31.135 6.20575 31.0496 6.18605 30.9445 6.18605C30.8544 6.18605 30.7765 6.202 30.7108 6.23391C30.6451 6.26394 30.5944 6.30805 30.5587 6.36623C30.5231 6.42254 30.5053 6.48918 30.5053 6.56613H29.6944C29.6944 6.43662 29.7244 6.31368 29.7845 6.19731C29.8446 6.08094 29.9318 5.97864 30.0463 5.89042C30.1608 5.80033 30.2969 5.72994 30.4546 5.67927C30.6141 5.62859 30.7924 5.60325 30.9895 5.60325C31.226 5.60325 31.4362 5.64266 31.6202 5.7215C31.8041 5.80033 31.9486 5.91858 32.0537 6.07624C32.1607 6.23391 32.2142 6.43099 32.2142 6.66749V7.97104C32.2142 8.13809 32.2246 8.27511 32.2452 8.3821C32.2658 8.48721 32.2959 8.57918 32.3353 8.65801V8.70587H31.516C31.4766 8.62329 31.4466 8.52005 31.4259 8.39617C31.4071 8.27042 31.3977 8.14466 31.3977 8.0189ZM31.5047 6.85049L31.5104 7.30941H31.0571C30.9501 7.30941 30.8572 7.32161 30.7784 7.34601C30.6995 7.37041 30.6348 7.40513 30.5841 7.45018C30.5334 7.49335 30.4959 7.54403 30.4715 7.60222C30.4489 7.6604 30.4377 7.72422 30.4377 7.79367C30.4377 7.86311 30.4536 7.92599 30.4855 7.9823C30.5175 8.03673 30.5634 8.0799 30.6235 8.11181C30.6836 8.14184 30.754 8.15686 30.8347 8.15686C30.9567 8.15686 31.0627 8.13246 31.1528 8.08366C31.2429 8.03486 31.3123 7.97479 31.3611 7.90347C31.4118 7.83214 31.4381 7.76457 31.44 7.70076L31.654 8.04424C31.6239 8.1212 31.5826 8.20097 31.5301 8.28355C31.4794 8.36614 31.4146 8.44403 31.3358 8.51724C31.257 8.58856 31.1622 8.64769 31.0514 8.69461C30.9407 8.73966 30.8093 8.76218 30.6573 8.76218C30.464 8.76218 30.2885 8.7237 30.1308 8.64675C29.975 8.56791 29.8511 8.45999 29.7592 8.32297C29.6691 8.18408 29.624 8.02641 29.624 7.84998C29.624 7.69043 29.654 7.54872 29.7141 7.42484C29.7742 7.30096 29.8624 7.19679 29.9788 7.11233C30.097 7.02599 30.2444 6.96123 30.4208 6.91806C30.5972 6.87302 30.8018 6.85049 31.0346 6.85049H31.5047ZM33.6332 6.30993V8.70587H32.8224V5.65956H33.5825L33.6332 6.30993ZM33.515 7.07573H33.2954C33.2954 6.85049 33.3245 6.64778 33.3826 6.46759C33.4408 6.28553 33.5225 6.13068 33.6276 6.00304C33.7327 5.87353 33.8575 5.77499 34.002 5.70742C34.1484 5.63797 34.3117 5.60325 34.4919 5.60325C34.6346 5.60325 34.765 5.62389 34.8833 5.66519C35.0015 5.70648 35.1029 5.77218 35.1873 5.86227C35.2737 5.95236 35.3394 6.07155 35.3844 6.21983C35.4313 6.36811 35.4548 6.54924 35.4548 6.76321V8.70587H34.6383V6.7604C34.6383 6.62526 34.6196 6.52015 34.582 6.44507C34.5445 6.36999 34.4891 6.31743 34.4159 6.2874C34.3446 6.25549 34.2564 6.23954 34.1513 6.23954C34.0424 6.23954 33.9476 6.26112 33.8669 6.30429C33.7881 6.34746 33.7224 6.40753 33.6698 6.48448C33.6191 6.55956 33.5807 6.64778 33.5544 6.74914C33.5281 6.85049 33.515 6.95936 33.515 7.07573ZM38 5.65956H38.7348V8.60452C38.7348 8.88231 38.6729 9.11787 38.549 9.31119C38.427 9.5064 38.2562 9.65374 38.0366 9.75322C37.817 9.85457 37.5617 9.90525 37.2708 9.90525C37.1431 9.90525 37.008 9.88836 36.8653 9.85457C36.7246 9.82079 36.5894 9.76823 36.4599 9.69691C36.3323 9.62558 36.2253 9.53549 36.139 9.42663L36.4965 8.948C36.5904 9.05686 36.6992 9.14133 36.8231 9.20139C36.947 9.26333 37.084 9.2943 37.2342 9.2943C37.3806 9.2943 37.5045 9.26708 37.6058 9.21265C37.7072 9.1601 37.7851 9.0822 37.8395 8.97897C37.8939 8.87761 37.9211 8.75467 37.9211 8.61015V6.36342L38 5.65956ZM35.9503 7.21932V7.16019C35.9503 6.92745 35.9785 6.71629 36.0348 6.52672C36.093 6.33526 36.1746 6.17103 36.2797 6.03401C36.3867 5.89699 36.5162 5.79094 36.6683 5.71587C36.8203 5.64079 36.992 5.60325 37.1835 5.60325C37.3862 5.60325 37.5561 5.64079 37.6931 5.71587C37.8301 5.79094 37.9427 5.89793 38.0309 6.03683C38.1192 6.17385 38.1877 6.3362 38.2365 6.5239C38.2872 6.70972 38.3266 6.91337 38.3547 7.13485V7.26436C38.3266 7.47646 38.2843 7.67354 38.228 7.85561C38.1717 8.03767 38.0976 8.19721 38.0056 8.33423C37.9136 8.46937 37.7991 8.57448 37.6621 8.64956C37.527 8.72464 37.3656 8.76218 37.1779 8.76218C36.9902 8.76218 36.8203 8.7237 36.6683 8.64675C36.5181 8.56979 36.3895 8.46187 36.2826 8.32297C36.1756 8.18408 36.093 8.02078 36.0348 7.83308C35.9785 7.64539 35.9503 7.4408 35.9503 7.21932ZM36.7612 7.16019V7.21932C36.7612 7.34507 36.7734 7.46238 36.7978 7.57125C36.8222 7.68011 36.8597 7.77677 36.9104 7.86124C36.963 7.94382 37.0277 8.00858 37.1047 8.0555C37.1835 8.10055 37.2764 8.12307 37.3834 8.12307C37.5317 8.12307 37.6527 8.0921 37.7466 8.03016C37.8404 7.96635 37.9108 7.87907 37.9577 7.76833C38.0047 7.65759 38.0319 7.52995 38.0394 7.38543V7.0166C38.0356 6.89835 38.0197 6.79231 37.9915 6.69846C37.9634 6.60273 37.924 6.52108 37.8733 6.45351C37.8226 6.38594 37.7569 6.33339 37.6762 6.29585C37.5955 6.25831 37.4998 6.23954 37.389 6.23954C37.282 6.23954 37.1891 6.26394 37.1103 6.31274C37.0333 6.35967 36.9686 6.42442 36.916 6.50701C36.8653 6.58959 36.8269 6.6872 36.8006 6.79981C36.7743 6.91055 36.7612 7.03068 36.7612 7.16019ZM40.624 8.1287C40.7235 8.1287 40.8117 8.10994 40.8886 8.0724C40.9656 8.03298 41.0256 7.97855 41.0688 7.9091C41.1139 7.83778 41.1373 7.75425 41.1392 7.65853H41.9022C41.9003 7.8725 41.8431 8.06301 41.7304 8.23006C41.6178 8.39523 41.4667 8.52568 41.2772 8.62141C41.0876 8.71526 40.8755 8.76218 40.6409 8.76218C40.4044 8.76218 40.1979 8.72276 40.0215 8.64393C39.8469 8.5651 39.7014 8.45624 39.5851 8.31734C39.4687 8.17657 39.3814 8.01327 39.3232 7.82745C39.265 7.63976 39.236 7.43892 39.236 7.22495V7.1433C39.236 6.92745 39.265 6.72661 39.3232 6.54079C39.3814 6.3531 39.4687 6.1898 39.5851 6.0509C39.7014 5.91013 39.8469 5.80033 40.0215 5.7215C40.196 5.64266 40.4006 5.60325 40.6352 5.60325C40.8849 5.60325 41.1035 5.65111 41.2912 5.74684C41.4808 5.84256 41.6291 5.97958 41.7361 6.15789C41.8449 6.33433 41.9003 6.54361 41.9022 6.78574H41.1392C41.1373 6.68438 41.1157 6.59241 41.0744 6.50982C41.035 6.42724 40.9768 6.36154 40.8999 6.31274C40.8248 6.26206 40.7319 6.23672 40.6212 6.23672C40.5029 6.23672 40.4062 6.26206 40.3312 6.31274C40.2561 6.36154 40.1979 6.42911 40.1566 6.51545C40.1153 6.59992 40.0862 6.69658 40.0693 6.80544C40.0543 6.91243 40.0468 7.02505 40.0468 7.1433V7.22495C40.0468 7.34319 40.0543 7.45675 40.0693 7.56562C40.0843 7.67448 40.1125 7.77114 40.1538 7.85561C40.197 7.94007 40.2561 8.0067 40.3312 8.0555C40.4062 8.1043 40.5038 8.1287 40.624 8.1287ZM42.2429 7.21368V7.15456C42.2429 6.9312 42.2748 6.72567 42.3386 6.53798C42.4024 6.3484 42.4953 6.18417 42.6173 6.04527C42.7393 5.90638 42.8895 5.79845 43.0678 5.7215C43.2461 5.64266 43.4507 5.60325 43.6815 5.60325C43.9124 5.60325 44.1179 5.64266 44.2981 5.7215C44.4783 5.79845 44.6294 5.90638 44.7514 6.04527C44.8753 6.18417 44.9691 6.3484 45.033 6.53798C45.0968 6.72567 45.1287 6.9312 45.1287 7.15456V7.21368C45.1287 7.43517 45.0968 7.64069 45.033 7.83027C44.9691 8.01796 44.8753 8.1822 44.7514 8.32297C44.6294 8.46187 44.4793 8.56979 44.3009 8.64675C44.1226 8.7237 43.918 8.76218 43.6872 8.76218C43.4563 8.76218 43.2508 8.7237 43.0706 8.64675C42.8923 8.56979 42.7412 8.46187 42.6173 8.32297C42.4953 8.1822 42.4024 8.01796 42.3386 7.83027C42.2748 7.64069 42.2429 7.43517 42.2429 7.21368ZM43.0537 7.15456V7.21368C43.0537 7.34132 43.065 7.46051 43.0875 7.57125C43.11 7.68199 43.1457 7.77959 43.1945 7.86405C43.2452 7.94664 43.3108 8.01139 43.3916 8.05832C43.4723 8.10524 43.5708 8.1287 43.6872 8.1287C43.7998 8.1287 43.8965 8.10524 43.9772 8.05832C44.0579 8.01139 44.1226 7.94664 44.1714 7.86405C44.2202 7.77959 44.2559 7.68199 44.2784 7.57125C44.3028 7.46051 44.315 7.34132 44.315 7.21368V7.15456C44.315 7.03068 44.3028 6.91431 44.2784 6.80544C44.2559 6.6947 44.2193 6.5971 44.1686 6.51264C44.1198 6.4263 44.0551 6.35873 43.9744 6.30993C43.8936 6.26112 43.796 6.23672 43.6815 6.23672C43.5671 6.23672 43.4695 6.26112 43.3887 6.30993C43.3099 6.35873 43.2452 6.4263 43.1945 6.51264C43.1457 6.5971 43.11 6.6947 43.0875 6.80544C43.065 6.91431 43.0537 7.03068 43.0537 7.15456ZM47.4261 8.04143V4.38134H48.2426V8.70587H47.5077L47.4261 8.04143ZM45.5003 7.21932V7.16019C45.5003 6.92745 45.5266 6.71629 45.5792 6.52672C45.6317 6.33526 45.7087 6.17103 45.81 6.03401C45.9114 5.89699 46.0362 5.79094 46.1845 5.71587C46.3328 5.64079 46.5017 5.60325 46.6913 5.60325C46.8696 5.60325 47.0254 5.64079 47.1586 5.71587C47.2938 5.79094 47.4083 5.89793 47.5021 6.03683C47.5978 6.17385 47.6748 6.3362 47.733 6.5239C47.7912 6.70972 47.8334 6.91337 47.8597 7.13485V7.26436C47.8334 7.47646 47.7912 7.67354 47.733 7.85561C47.6748 8.03767 47.5978 8.19721 47.5021 8.33423C47.4083 8.46937 47.2938 8.57448 47.1586 8.64956C47.0235 8.72464 46.8658 8.76218 46.6856 8.76218C46.4961 8.76218 46.3271 8.7237 46.1789 8.64675C46.0324 8.56979 45.9086 8.46187 45.8072 8.32297C45.7077 8.18408 45.6317 8.02078 45.5792 7.83308C45.5266 7.64539 45.5003 7.4408 45.5003 7.21932ZM46.3112 7.16019V7.21932C46.3112 7.34507 46.3206 7.46238 46.3393 7.57125C46.36 7.68011 46.3928 7.77677 46.4379 7.86124C46.4848 7.94382 46.5449 8.00858 46.6181 8.0555C46.6931 8.10055 46.7842 8.12307 46.8912 8.12307C47.0301 8.12307 47.1445 8.0921 47.2346 8.03016C47.3247 7.96635 47.3932 7.87907 47.4402 7.76833C47.489 7.65759 47.5171 7.52995 47.5246 7.38543V7.0166C47.519 6.89835 47.5021 6.79231 47.474 6.69846C47.4477 6.60273 47.4083 6.52108 47.3557 6.45351C47.305 6.38594 47.2412 6.33339 47.1643 6.29585C47.0892 6.25831 47 6.23954 46.8968 6.23954C46.7917 6.23954 46.7016 6.26394 46.6265 6.31274C46.5514 6.35967 46.4904 6.42442 46.4435 6.50701C46.3985 6.58959 46.3647 6.6872 46.3421 6.79981C46.3215 6.91055 46.3112 7.03068 46.3112 7.16019ZM49.7319 5.65956V8.70587H48.9183V5.65956H49.7319ZM48.8676 4.8656C48.8676 4.74735 48.9089 4.64975 48.9915 4.57279C49.0741 4.49584 49.1848 4.45736 49.3237 4.45736C49.4607 4.45736 49.5705 4.49584 49.6531 4.57279C49.7376 4.64975 49.7798 4.74735 49.7798 4.8656C49.7798 4.98385 49.7376 5.08145 49.6531 5.15841C49.5705 5.23536 49.4607 5.27384 49.3237 5.27384C49.1848 5.27384 49.0741 5.23536 48.9915 5.15841C48.9089 5.08145 48.8676 4.98385 48.8676 4.8656ZM51.196 6.30993V8.70587H50.3851V5.65956H51.1453L51.196 6.30993ZM51.0777 7.07573H50.8581C50.8581 6.85049 50.8872 6.64778 50.9454 6.46759C51.0036 6.28553 51.0852 6.13068 51.1903 6.00304C51.2955 5.87353 51.4203 5.77499 51.5648 5.70742C51.7112 5.63797 51.8745 5.60325 52.0547 5.60325C52.1973 5.60325 52.3278 5.62389 52.446 5.66519C52.5643 5.70648 52.6656 5.77218 52.7501 5.86227C52.8364 5.95236 52.9021 6.07155 52.9472 6.21983C52.9941 6.36811 53.0176 6.54924 53.0176 6.76321V8.70587H52.2011V6.7604C52.2011 6.62526 52.1823 6.52015 52.1448 6.44507C52.1072 6.36999 52.0519 6.31743 51.9787 6.2874C51.9073 6.25549 51.8191 6.23954 51.714 6.23954C51.6052 6.23954 51.5104 6.26112 51.4297 6.30429C51.3508 6.34746 51.2851 6.40753 51.2326 6.48448C51.1819 6.55956 51.1434 6.64778 51.1171 6.74914C51.0909 6.85049 51.0777 6.95936 51.0777 7.07573ZM55.5627 5.65956H56.2976V8.60452C56.2976 8.88231 56.2356 9.11787 56.1118 9.31119C55.9897 9.5064 55.8189 9.65374 55.5993 9.75322C55.3797 9.85457 55.1245 9.90525 54.8335 9.90525C54.7059 9.90525 54.5708 9.88836 54.4281 9.85457C54.2873 9.82079 54.1522 9.76823 54.0227 9.69691C53.8951 9.62558 53.7881 9.53549 53.7017 9.42663L54.0593 8.948C54.1531 9.05686 54.262 9.14133 54.3859 9.20139C54.5098 9.26333 54.6468 9.2943 54.7969 9.2943C54.9433 9.2943 55.0672 9.26708 55.1686 9.21265C55.2699 9.1601 55.3478 9.0822 55.4023 8.97897C55.4567 8.87761 55.4839 8.75467 55.4839 8.61015V6.36342L55.5627 5.65956ZM53.5131 7.21932V7.16019C53.5131 6.92745 53.5412 6.71629 53.5976 6.52672C53.6557 6.33526 53.7374 6.17103 53.8425 6.03401C53.9495 5.89699 54.079 5.79094 54.231 5.71587C54.3831 5.64079 54.5548 5.60325 54.7463 5.60325C54.949 5.60325 55.1188 5.64079 55.2559 5.71587C55.3929 5.79094 55.5055 5.89793 55.5937 6.03683C55.6819 6.17385 55.7504 6.3362 55.7992 6.5239C55.8499 6.70972 55.8893 6.91337 55.9175 7.13485V7.26436C55.8893 7.47646 55.8471 7.67354 55.7908 7.85561C55.7345 8.03767 55.6603 8.19721 55.5684 8.33423C55.4764 8.46937 55.3619 8.57448 55.2249 8.64956C55.0897 8.72464 54.9283 8.76218 54.7406 8.76218C54.5529 8.76218 54.3831 8.7237 54.231 8.64675C54.0809 8.56979 53.9523 8.46187 53.8453 8.32297C53.7383 8.18408 53.6557 8.02078 53.5976 7.83308C53.5412 7.64539 53.5131 7.4408 53.5131 7.21932ZM54.3239 7.16019V7.21932C54.3239 7.34507 54.3361 7.46238 54.3605 7.57125C54.3849 7.68011 54.4225 7.77677 54.4732 7.86124C54.5257 7.94382 54.5905 8.00858 54.6674 8.0555C54.7463 8.10055 54.8392 8.12307 54.9462 8.12307C55.0944 8.12307 55.2155 8.0921 55.3093 8.03016C55.4032 7.96635 55.4736 7.87907 55.5205 7.76833C55.5674 7.65759 55.5946 7.52995 55.6022 7.38543V7.0166C55.5984 6.89835 55.5824 6.79231 55.5543 6.69846C55.5261 6.60273 55.4867 6.52108 55.436 6.45351C55.3854 6.38594 55.3197 6.33339 55.239 6.29585C55.1583 6.25831 55.0625 6.23954 54.9518 6.23954C54.8448 6.23954 54.7519 6.26394 54.6731 6.31274C54.5961 6.35967 54.5313 6.42442 54.4788 6.50701C54.4281 6.58959 54.3896 6.6872 54.3634 6.79981C54.3371 6.91055 54.3239 7.03068 54.3239 7.16019ZM60.5489 7.63319C60.5489 7.55998 60.5376 7.49429 60.5151 7.4361C60.4945 7.37604 60.455 7.32161 60.3969 7.27281C60.3387 7.22213 60.257 7.17239 60.1519 7.12359C60.0468 7.07479 59.9107 7.02411 59.7437 6.97156C59.5579 6.91149 59.3814 6.84392 59.2144 6.76884C59.0492 6.69376 58.9028 6.60649 58.7752 6.50701C58.6494 6.40565 58.5499 6.28834 58.4767 6.15508C58.4054 6.02181 58.3697 5.86696 58.3697 5.69053C58.3697 5.51972 58.4073 5.36487 58.4824 5.22598C58.5574 5.08521 58.6625 4.96508 58.7977 4.8656C58.9328 4.76424 59.0924 4.68635 59.2763 4.63192C59.4621 4.57749 59.6658 4.55027 59.8873 4.55027C60.1895 4.55027 60.4532 4.6047 60.6784 4.71357C60.9036 4.82243 61.0782 4.97165 61.2021 5.16122C61.3278 5.3508 61.3907 5.56759 61.3907 5.81159H60.5517C60.5517 5.69147 60.5264 5.58636 60.4757 5.49626C60.4269 5.40429 60.3518 5.33203 60.2505 5.27947C60.151 5.22692 60.0252 5.20064 59.8732 5.20064C59.7268 5.20064 59.6048 5.22316 59.5072 5.26821C59.4096 5.31138 59.3364 5.3705 59.2876 5.44558C59.2388 5.51878 59.2144 5.60137 59.2144 5.69334C59.2144 5.76279 59.2313 5.82567 59.265 5.88198C59.3007 5.93829 59.3533 5.99084 59.4227 6.03964C59.4922 6.08844 59.5776 6.13443 59.6789 6.1776C59.7803 6.22077 59.8976 6.263 60.0308 6.30429C60.2542 6.37187 60.4504 6.44788 60.6193 6.53235C60.7901 6.61681 60.9327 6.7116 61.0472 6.81671C61.1617 6.92182 61.2481 7.041 61.3062 7.17427C61.3644 7.30753 61.3935 7.45863 61.3935 7.62756C61.3935 7.80587 61.3588 7.96541 61.2894 8.10618C61.2199 8.24695 61.1195 8.36614 60.9881 8.46374C60.8567 8.56135 60.7 8.63549 60.5179 8.68616C60.3359 8.73684 60.1322 8.76218 59.907 8.76218C59.7043 8.76218 59.5044 8.7359 59.3073 8.68335C59.1102 8.62892 58.9309 8.54727 58.7695 8.4384C58.61 8.32954 58.4824 8.19064 58.3866 8.02172C58.2909 7.85279 58.243 7.65289 58.243 7.42203H59.0905C59.0905 7.54966 59.1102 7.65759 59.1496 7.7458C59.189 7.83402 59.2444 7.90535 59.3157 7.95978C59.3889 8.01421 59.4753 8.05363 59.5747 8.07803C59.6761 8.10243 59.7868 8.11463 59.907 8.11463C60.0534 8.11463 60.1735 8.09398 60.2673 8.05269C60.3631 8.01139 60.4335 7.95415 60.4785 7.88095C60.5254 7.80774 60.5489 7.72516 60.5489 7.63319ZM63.4094 5.65956V6.23391H61.6357V5.65956H63.4094ZM62.0749 4.90783H62.8857V7.78804C62.8857 7.87625 62.897 7.94382 62.9195 7.99075C62.9439 8.03767 62.9796 8.07052 63.0265 8.08929C63.0734 8.10618 63.1325 8.11463 63.2039 8.11463C63.2545 8.11463 63.2996 8.11275 63.339 8.109C63.3803 8.10337 63.415 8.09773 63.4432 8.0921L63.446 8.68898C63.3765 8.7115 63.3015 8.72933 63.2208 8.74247C63.14 8.75561 63.0509 8.76218 62.9533 8.76218C62.775 8.76218 62.6192 8.73309 62.4859 8.6749C62.3545 8.61484 62.2532 8.51911 62.1819 8.38773C62.1105 8.25634 62.0749 8.08366 62.0749 7.86968V4.90783ZM63.6684 7.21368V7.15456C63.6684 6.9312 63.7003 6.72567 63.7641 6.53798C63.828 6.3484 63.9209 6.18417 64.0429 6.04527C64.1649 5.90638 64.315 5.79845 64.4933 5.7215C64.6716 5.64266 64.8762 5.60325 65.1071 5.60325C65.338 5.60325 65.5435 5.64266 65.7237 5.7215C65.9039 5.79845 66.055 5.90638 66.177 6.04527C66.3009 6.18417 66.3947 6.3484 66.4585 6.53798C66.5223 6.72567 66.5542 6.9312 66.5542 7.15456V7.21368C66.5542 7.43517 66.5223 7.64069 66.4585 7.83027C66.3947 8.01796 66.3009 8.1822 66.177 8.32297C66.055 8.46187 65.9048 8.56979 65.7265 8.64675C65.5482 8.7237 65.3436 8.76218 65.1127 8.76218C64.8819 8.76218 64.6763 8.7237 64.4962 8.64675C64.3178 8.56979 64.1667 8.46187 64.0429 8.32297C63.9209 8.1822 63.828 8.01796 63.7641 7.83027C63.7003 7.64069 63.6684 7.43517 63.6684 7.21368ZM64.4793 7.15456V7.21368C64.4793 7.34132 64.4905 7.46051 64.513 7.57125C64.5356 7.68199 64.5712 7.77959 64.62 7.86405C64.6707 7.94664 64.7364 8.01139 64.8171 8.05832C64.8978 8.10524 64.9964 8.1287 65.1127 8.1287C65.2254 8.1287 65.322 8.10524 65.4027 8.05832C65.4834 8.01139 65.5482 7.94664 65.597 7.86405C65.6458 7.77959 65.6815 7.68199 65.704 7.57125C65.7284 7.46051 65.7406 7.34132 65.7406 7.21368V7.15456C65.7406 7.03068 65.7284 6.91431 65.704 6.80544C65.6815 6.6947 65.6449 6.5971 65.5942 6.51264C65.5454 6.4263 65.4806 6.35873 65.3999 6.30993C65.3192 6.26112 65.2216 6.23672 65.1071 6.23672C64.9926 6.23672 64.895 6.26112 64.8143 6.30993C64.7355 6.35873 64.6707 6.4263 64.62 6.51264C64.5712 6.5971 64.5356 6.6947 64.513 6.80544C64.4905 6.91431 64.4793 7.03068 64.4793 7.15456ZM67.8634 6.324V8.70587H67.0526V5.65956H67.8156L67.8634 6.324ZM68.7813 5.63985L68.7672 6.39157C68.7278 6.38594 68.6799 6.38125 68.6236 6.3775C68.5692 6.37187 68.5194 6.36905 68.4744 6.36905C68.3599 6.36905 68.2604 6.38407 68.1759 6.4141C68.0934 6.44225 68.0239 6.48448 67.9676 6.54079C67.9132 6.5971 67.8719 6.66561 67.8437 6.74632C67.8174 6.82703 67.8024 6.919 67.7987 7.02223L67.6354 6.97156C67.6354 6.77447 67.6551 6.59335 67.6945 6.42817C67.7339 6.26112 67.7912 6.11566 67.8662 5.99178C67.9432 5.8679 68.037 5.77218 68.1478 5.7046C68.2585 5.63703 68.3852 5.60325 68.5279 5.60325C68.5729 5.60325 68.6189 5.607 68.6658 5.61451C68.7128 5.62014 68.7512 5.62859 68.7813 5.63985ZM70.5099 8.76218C70.2735 8.76218 70.0614 8.72464 69.8737 8.64956C69.686 8.57261 69.5264 8.46656 69.395 8.33142C69.2655 8.19628 69.166 8.03955 69.0966 7.86124C69.0271 7.68105 68.9924 7.4896 68.9924 7.28689V7.17427C68.9924 6.9434 69.0253 6.73224 69.091 6.54079C69.1567 6.34934 69.2505 6.18323 69.3725 6.04246C69.4964 5.90169 69.6465 5.79376 69.823 5.71868C69.9994 5.64173 70.1984 5.60325 70.4199 5.60325C70.6357 5.60325 70.8272 5.63891 70.9942 5.71024C71.1613 5.78156 71.3011 5.88292 71.4137 6.0143C71.5282 6.14569 71.6145 6.30336 71.6727 6.4873C71.7309 6.66936 71.76 6.87208 71.76 7.09544V7.43329H69.3387V6.89272H70.9632V6.83078C70.9632 6.71817 70.9426 6.61775 70.9013 6.52953C70.8619 6.43944 70.8018 6.36811 70.7211 6.31556C70.6404 6.263 70.5372 6.23672 70.4114 6.23672C70.3044 6.23672 70.2125 6.26019 70.1355 6.30711C70.0585 6.35403 69.9957 6.41973 69.9469 6.50419C69.8999 6.58865 69.8643 6.68813 69.8399 6.80263C69.8173 6.91525 69.8061 7.03913 69.8061 7.17427V7.28689C69.8061 7.40889 69.823 7.52151 69.8568 7.62474C69.8924 7.72797 69.9422 7.81713 70.006 7.89221C70.0717 7.96729 70.1505 8.02547 70.2425 8.06676C70.3363 8.10806 70.4424 8.1287 70.5606 8.1287C70.707 8.1287 70.8431 8.10055 70.9689 8.04424C71.0965 7.98606 71.2063 7.89878 71.2983 7.7824L71.6924 8.21035C71.6286 8.30232 71.5413 8.39054 71.4306 8.475C71.3217 8.55947 71.1903 8.62892 71.0364 8.68335C70.8825 8.7359 70.707 8.76218 70.5099 8.76218Z" fill="#545BE8"/>
<path d="M16.866 0H0.103137C0.0462168 0 0 0.0397173 0 0.088714V13.8844C0 13.9334 0.0462168 13.9731 0.103137 13.9731H16.866C16.923 13.9731 16.9689 13.9334 16.9689 13.8844V0.088714C16.9689 0.0397173 16.923 0 16.866 0Z" fill="#545BE8"/>
<path d="M4.4848 3.07507V10.898" stroke="white" stroke-width="1.26926"/>
<path d="M7.22453 3.07507V6.97175" stroke="white" stroke-width="1.26685"/>
<path d="M9.31161 3.07538V4.39894H11.926L13.8224 7.7519H15.53L12.818 3.07538H9.31161Z" fill="white"/>
<path d="M10.0884 5.83325V11.0533" stroke="white" stroke-width="1.46628"/>
</svg>
