<svg width="14" height="14" viewBox="0 0 14 14" fill="none" xmlns="http://www.w3.org/2000/svg">
<rect x="0.872815" y="0.701596" width="12.7677" height="12.7677" stroke="white" stroke-width="0.41186"/>
<g clip-path="url(#clip0_1_154)">
<path d="M5.42491 9.96806V5.79984H4.02698V9.96806H5.42491ZM4.72613 5.2304C5.21361 5.2304 5.51705 4.91033 5.51705 4.51035C5.50796 4.10135 5.21363 3.79016 4.73538 3.79016C4.2572 3.79016 3.9445 4.10135 3.9445 4.51035C3.9445 4.91035 4.24786 5.2304 4.717 5.2304H4.72608H4.72613ZM6.19866 9.96806H7.5966V7.64032C7.5966 7.51575 7.60568 7.3913 7.64259 7.30225C7.74365 7.05334 7.97367 6.79555 8.35984 6.79555C8.86569 6.79555 9.06806 7.17779 9.06806 7.73813V9.96803H10.4659V7.57801C10.4659 6.2977 9.77624 5.70199 8.85648 5.70199C8.10236 5.70199 7.77124 6.11975 7.58729 6.40428H7.59663V5.79976H6.19869C6.21704 6.19088 6.19869 9.96798 6.19869 9.96798L6.19866 9.96806Z" fill="white"/>
</g>
<defs>
<clipPath id="clip0_1_154">
<rect width="6.58976" height="6.1779" fill="white" transform="translate(3.96176 3.79041)"/>
</clipPath>
</defs>
</svg>
