<svg width="15" height="14" viewBox="0 0 15 14" fill="none" xmlns="http://www.w3.org/2000/svg">
<rect x="1.10353" y="0.701596" width="12.7677" height="12.7677" stroke="white" stroke-width="0.41186"/>
<g clip-path="url(#clip0_1_149)">
<path d="M11.1032 4.90461C10.8285 5.02178 10.5371 5.09868 10.2388 5.13277C10.5495 4.95344 10.7881 4.66947 10.9005 4.33113C10.6051 4.49991 10.2819 4.61883 9.94486 4.68274C9.67032 4.40115 9.27922 4.22516 8.84635 4.22516C8.01521 4.22516 7.34135 4.87393 7.34135 5.67412C7.34135 5.7877 7.35467 5.89827 7.38032 6.00435C6.12957 5.94391 5.02066 5.36705 4.27837 4.4904C4.14886 4.7044 4.07464 4.95333 4.07464 5.21885C4.07464 5.72157 4.34035 6.16506 4.74415 6.42491C4.50516 6.41771 4.27143 6.35556 4.06247 6.24366C4.06238 6.24973 4.06238 6.2558 4.06238 6.26189C4.06238 6.96394 4.58113 7.54959 5.26958 7.68271C5.04796 7.74074 4.8155 7.74923 4.58996 7.70754C4.78145 8.28321 5.33726 8.70211 5.99578 8.71384C5.48073 9.10245 4.8318 9.33411 4.12674 9.33411C4.00524 9.33411 3.88547 9.32724 3.76773 9.31386C4.43374 9.72499 5.22479 9.96487 6.07467 9.96487C8.84285 9.96487 10.3566 7.75692 10.3566 5.84216C10.3566 5.77931 10.3551 5.71682 10.3522 5.65469C10.6468 5.44962 10.9011 5.19562 11.1032 4.90461Z" fill="white"/>
</g>
<defs>
<clipPath id="clip0_1_149">
<rect width="7.41348" height="5.76604" fill="white" transform="translate(3.78069 4.20239)"/>
</clipPath>
</defs>
</svg>
